<svg xmlns="http://www.w3.org/2000/svg" width="884" height="450" viewBox="0 0 884 450" font-family="ui-sans-serif, -apple-system, Segoe UI, Roboto, sans-serif">
<rect width="884" height="450" fill="#ffffff"/>
<defs><marker id="ah" viewBox="0 0 10 10" refX="9" refY="5" markerWidth="7" markerHeight="7" orient="auto-start-reverse"><path d="M0,0 L10,5 L0,10 z" fill="#1e1e1e"/></marker></defs>
<text x="28" y="24" font-size="20" font-weight="700" fill="#1e1e1e">AXON — personal memory &amp; identity</text>
<rect x="28" y="148" width="250" height="64" rx="10" fill="#e9ecef" stroke="#1e1e1e" stroke-width="2"/>
<text x="153" y="175.5" font-size="14" fill="#1e1e1e" text-anchor="middle">axon onboard</text>
<text x="153" y="194.0" font-size="14" fill="#1e1e1e" text-anchor="middle">interview · idempotent · no model</text>
<rect x="324" y="64" width="280" height="232" rx="10" fill="#f8f9fa" stroke="#1e1e1e" stroke-width="2" stroke-dasharray="6 5"/>
<rect x="342" y="100" width="244" height="46" rx="10" fill="#a5d8ff" stroke="#1e1e1e" stroke-width="2"/>
<text x="464" y="128.1" font-size="15" fill="#1e1e1e" text-anchor="middle">USER.md — who you are</text>
<rect x="342" y="152" width="244" height="46" rx="10" fill="#a5d8ff" stroke="#1e1e1e" stroke-width="2"/>
<text x="464" y="180.1" font-size="15" fill="#1e1e1e" text-anchor="middle">SOUL.md — assistant persona</text>
<rect x="342" y="208" width="244" height="72" rx="10" fill="#ffec99" stroke="#1e1e1e" stroke-width="2"/>
<text x="464" y="239.5" font-size="14" fill="#1e1e1e" text-anchor="middle">MEMORY.md</text>
<text x="464" y="258.0" font-size="14" fill="#1e1e1e" text-anchor="middle">axon:memory · durable entries</text>
<rect x="640" y="96" width="216" height="64" rx="10" fill="#b2f2bb" stroke="#1e1e1e" stroke-width="2"/>
<text x="748" y="123.5" font-size="14" fill="#1e1e1e" text-anchor="middle">SessionStart hook</text>
<text x="748" y="142.0" font-size="14" fill="#1e1e1e" text-anchor="middle">bounded · redacted · no model</text>
<rect x="640" y="192" width="216" height="60" rx="10" fill="#b2f2bb" stroke="#1e1e1e" stroke-width="2"/>
<text x="748" y="217.5" font-size="14" fill="#1e1e1e" text-anchor="middle">Claude Code session</text>
<text x="748" y="236.0" font-size="14" fill="#1e1e1e" text-anchor="middle">“knows you”</text>
<rect x="326" y="364" width="130" height="58" rx="10" fill="#a5d8ff" stroke="#1e1e1e" stroke-width="2"/>
<text x="391" y="388.8" font-size="13" fill="#1e1e1e" text-anchor="middle">memory_remember</text>
<text x="391" y="406.0" font-size="13" fill="#1e1e1e" text-anchor="middle">MCP tool</text>
<rect x="462" y="364" width="130" height="58" rx="10" fill="#a5d8ff" stroke="#1e1e1e" stroke-width="2"/>
<text x="527" y="381.2" font-size="12" fill="#1e1e1e" text-anchor="middle">memory-distill ·</text>
<text x="527" y="397.1" font-size="12" fill="#1e1e1e" text-anchor="middle">session-distill</text>
<text x="527" y="412.9" font-size="12" fill="#1e1e1e" text-anchor="middle">→ token manager</text>
<rect x="640" y="292" width="216" height="100" rx="10" fill="#ffc9c9" stroke="#1e1e1e" stroke-width="2"/>
<text x="748" y="322.3" font-size="12" fill="#1e1e1e" text-anchor="middle">Privacy (NFR-14)</text>
<text x="748" y="338.2" font-size="12" fill="#1e1e1e" text-anchor="middle">never in logs, events,</text>
<text x="748" y="354.0" font-size="12" fill="#1e1e1e" text-anchor="middle">ledger or exports;</text>
<text x="748" y="369.8" font-size="12" fill="#1e1e1e" text-anchor="middle">redaction before egress.</text>
<line x1="278" y1="180" x2="324" y2="180" stroke="#1e1e1e" stroke-width="2" marker-end="url(#ah)"/>
<rect x="276.0" y="170.0" width="50" height="20" rx="4" fill="#ffffff" stroke="#ced4da" stroke-width="1"/>
<text x="301" y="184.0" font-size="12.5" fill="#1e1e1e" text-anchor="middle">writes</text>
<line x1="604" y1="128" x2="640" y2="128" stroke="#1e1e1e" stroke-width="2" marker-end="url(#ah)"/>
<rect x="597.0" y="118.0" width="50" height="20" rx="4" fill="#ffffff" stroke="#ced4da" stroke-width="1"/>
<text x="622" y="132.0" font-size="12.5" fill="#1e1e1e" text-anchor="middle">inject</text>
<line x1="748" y1="160" x2="748" y2="192" stroke="#1e1e1e" stroke-width="2" marker-end="url(#ah)"/>
<line x1="391" y1="364" x2="391" y2="282" stroke="#1e1e1e" stroke-width="2" marker-end="url(#ah)"/>
<line x1="527" y1="364" x2="527" y2="282" stroke="#1e1e1e" stroke-width="2" marker-end="url(#ah)"/>
<text x="342" y="83.0" font-size="13" fill="#1e1e1e" text-anchor="start" font-weight="600">Identity layer · 02-Areas/Profile/</text>
<text x="396" y="342.0" font-size="12" fill="#1e1e1e" text-anchor="start" font-weight="600">append (wikilink-safe)</text>
</svg>