<svg xmlns="http://www.w3.org/2000/svg" width="756" height="950" viewBox="0 0 756 950" font-family="ui-sans-serif, -apple-system, Segoe UI, Roboto, sans-serif">
<rect width="756" height="950" fill="#ffffff"/>
<defs><marker id="ah" viewBox="0 0 10 10" refX="9" refY="5" markerWidth="7" markerHeight="7" orient="auto-start-reverse"><path d="M0,0 L10,5 L0,10 z" fill="#1e1e1e"/></marker></defs>
<text x="28" y="24" font-size="20" font-weight="700" fill="#1e1e1e">AXON — token chokepoint &amp; automation lifecycle</text>
<rect x="28" y="64" width="380" height="54" rx="10" fill="#e9ecef" stroke="#1e1e1e" stroke-width="2"/>
<text x="218" y="96.4" font-size="16" fill="#1e1e1e" text-anchor="middle">Scheduler fires / caller</text>
<rect x="28" y="146" width="380" height="54" rx="10" fill="#a5d8ff" stroke="#1e1e1e" stroke-width="2"/>
<text x="218" y="178.4" font-size="16" fill="#1e1e1e" text-anchor="middle">Acquire lock + open run record</text>
<polygon points="218,228 378,266 218,304 58,266" fill="#ffec99" stroke="#1e1e1e" stroke-width="2"/>
<text x="218" y="261.5" font-size="14" fill="#1e1e1e" text-anchor="middle">Change-gate:</text>
<text x="218" y="280.0" font-size="14" fill="#1e1e1e" text-anchor="middle">new material?</text>
<rect x="488" y="239" width="240" height="54" rx="10" fill="#b2f2bb" stroke="#1e1e1e" stroke-width="2"/>
<text x="608" y="270.8" font-size="14" fill="#1e1e1e" text-anchor="middle">Skip — no Claude call</text>
<polygon points="218,332 378,370 218,408 58,370" fill="#ffec99" stroke="#1e1e1e" stroke-width="2"/>
<text x="218" y="365.5" font-size="14" fill="#1e1e1e" text-anchor="middle">Budget pre-check:</text>
<text x="218" y="384.0" font-size="14" fill="#1e1e1e" text-anchor="middle">guard active?</text>
<rect x="488" y="343" width="240" height="54" rx="10" fill="#b2f2bb" stroke="#1e1e1e" stroke-width="2"/>
<text x="608" y="374.8" font-size="14" fill="#1e1e1e" text-anchor="middle">Skip — budget</text>
<rect x="28" y="436" width="380" height="54" rx="10" fill="#ffd8a8" stroke="#1e1e1e" stroke-width="2"/>
<text x="218" y="468.4" font-size="16" fill="#1e1e1e" text-anchor="middle">Build context + token estimate</text>
<polygon points="218,518 378,556 218,594 58,556" fill="#ffec99" stroke="#1e1e1e" stroke-width="2"/>
<text x="218" y="543.3" font-size="13" fill="#1e1e1e" text-anchor="middle">Authorize:</text>
<text x="218" y="560.4" font-size="13" fill="#1e1e1e" text-anchor="middle">proceed / downgrade /</text>
<text x="218" y="577.6" font-size="13" fill="#1e1e1e" text-anchor="middle">defer / deny</text>
<rect x="488" y="529" width="240" height="54" rx="10" fill="#ffc9c9" stroke="#1e1e1e" stroke-width="2"/>
<text x="608" y="551.5" font-size="14" fill="#1e1e1e" text-anchor="middle">defer / deny</text>
<text x="608" y="570.0" font-size="14" fill="#1e1e1e" text-anchor="middle">(surfaced)</text>
<rect x="28" y="622" width="380" height="54" rx="10" fill="#ffd8a8" stroke="#1e1e1e" stroke-width="2"/>
<text x="218" y="643.9" font-size="16" fill="#1e1e1e" text-anchor="middle">Run via claude -p</text>
<text x="218" y="665.0" font-size="16" fill="#1e1e1e" text-anchor="middle">(the ONLY path to Claude)</text>
<rect x="28" y="704" width="380" height="54" rx="10" fill="#d0bfff" stroke="#1e1e1e" stroke-width="2"/>
<text x="218" y="736.4" font-size="16" fill="#1e1e1e" text-anchor="middle">Record usage → ledger + budget</text>
<rect x="28" y="786" width="380" height="54" rx="10" fill="#a5d8ff" stroke="#1e1e1e" stroke-width="2"/>
<text x="218" y="818.4" font-size="16" fill="#1e1e1e" text-anchor="middle">Apply wikilink-safe vault writes</text>
<rect x="28" y="868" width="380" height="54" rx="10" fill="#e9ecef" stroke="#1e1e1e" stroke-width="2"/>
<text x="218" y="900.4" font-size="16" fill="#1e1e1e" text-anchor="middle">Emit event → dashboard</text>
<line x1="218" y1="118" x2="218" y2="146" stroke="#1e1e1e" stroke-width="2" marker-end="url(#ah)"/>
<line x1="218" y1="200" x2="218" y2="228" stroke="#1e1e1e" stroke-width="2" marker-end="url(#ah)"/>
<line x1="378" y1="266" x2="488" y2="266" stroke="#1e1e1e" stroke-width="2" marker-end="url(#ah)"/>
<rect x="422.0" y="256.0" width="22" height="20" rx="4" fill="#ffffff" stroke="#ced4da" stroke-width="1"/>
<text x="433" y="270.0" font-size="12.5" fill="#1e1e1e" text-anchor="middle">no</text>
<line x1="218" y1="304" x2="218" y2="332" stroke="#1e1e1e" stroke-width="2" marker-end="url(#ah)"/>
<rect x="203.5" y="308.0" width="29" height="20" rx="4" fill="#ffffff" stroke="#ced4da" stroke-width="1"/>
<text x="218" y="322.0" font-size="12.5" fill="#1e1e1e" text-anchor="middle">yes</text>
<line x1="378" y1="370" x2="488" y2="370" stroke="#1e1e1e" stroke-width="2" marker-end="url(#ah)"/>
<rect x="418.5" y="360.0" width="29" height="20" rx="4" fill="#ffffff" stroke="#ced4da" stroke-width="1"/>
<text x="433" y="374.0" font-size="12.5" fill="#1e1e1e" text-anchor="middle">yes</text>
<line x1="218" y1="408" x2="218" y2="436" stroke="#1e1e1e" stroke-width="2" marker-end="url(#ah)"/>
<rect x="207.0" y="412.0" width="22" height="20" rx="4" fill="#ffffff" stroke="#ced4da" stroke-width="1"/>
<text x="218" y="426.0" font-size="12.5" fill="#1e1e1e" text-anchor="middle">no</text>
<line x1="218" y1="490" x2="218" y2="518" stroke="#1e1e1e" stroke-width="2" marker-end="url(#ah)"/>
<line x1="378" y1="556" x2="488" y2="556" stroke="#1e1e1e" stroke-width="2" marker-end="url(#ah)"/>
<line x1="218" y1="594" x2="218" y2="622" stroke="#1e1e1e" stroke-width="2" marker-end="url(#ah)"/>
<rect x="189.5" y="598.0" width="57" height="20" rx="4" fill="#ffffff" stroke="#ced4da" stroke-width="1"/>
<text x="218" y="612.0" font-size="12.5" fill="#1e1e1e" text-anchor="middle">proceed</text>
<line x1="218" y1="676" x2="218" y2="704" stroke="#1e1e1e" stroke-width="2" marker-end="url(#ah)"/>
<line x1="218" y1="758" x2="218" y2="786" stroke="#1e1e1e" stroke-width="2" marker-end="url(#ah)"/>
<line x1="218" y1="840" x2="218" y2="868" stroke="#1e1e1e" stroke-width="2" marker-end="url(#ah)"/>
</svg>